<svg id="Layer_1" data-name="Layer 1" xmlns="http://www.w3.org/2000/svg" viewBox="0 0 223.39 36">
  <title>drivendata-logo</title>
  <g>
    <polygon points="170.44 3.94 142.49 3.94 142.49 0.02 171.58 0.02 170.44 3.94" style="fill: #ffde35"/>
    <rect x="142.48" y="6.42" width="48" height="3.92" style="fill: #afdd5e"/>
    <polygon points="203.9 16.74 142.49 16.74 142.49 12.82 205.03 12.82 203.9 16.74" style="fill: #ea95ca"/>
    <polygon points="178.53 23.14 142.49 23.14 142.49 19.22 177.72 19.22 178.53 23.14" style="fill: #98aad1"/>
    <polygon points="200.67 29.54 142.49 29.54 142.49 25.62 201.64 25.62 200.67 29.54" style="fill: #fc986d"/>
    <polygon points="218.61 35.94 142.49 35.94 142.49 32.02 217.64 32.02 218.61 35.94" style="fill: #71c9ae"/>
    <path d="M1667.59,89.81v-36h14a8.33,8.33,0,0,1,7,4.08c1.54,2.5,2,6.48,2,12.43,0,7.1,0,15.31-5.52,18.53a9.9,9.9,0,0,1-5,1h-12.43Zm9.65-5.28c6,0,6.38-3.17,6.38-13.58,0-8.5-.86-11.86-4.9-11.86h-4.42V84.53h2.93Z" transform="translate(-1667.59 -53.81)" style="fill: #17344a"/>
    <path d="M1701.37,74.31v15.5h-6.72v-36h12.72c5.81,0,10.22,2,10.22,8.64,0,3.94-1,8.06-5.52,8.69v0.1c4,0.53,5.18,3.07,5.18,6.53V79.3c0,3,.1,9,1.44,9.84v0.67h-7.39c-0.67-1.87-.72-5.14-0.72-7.54V80.69c0-2.21,0-5.23-2.3-5.9a17.74,17.74,0,0,0-4.8-.48h-2.11Zm0-5.28h5.28c2.21-.14,3.94-1.58,3.94-5.18,0-4-1.68-4.7-4.22-4.75h-5V69Z" transform="translate(-1667.59 -53.81)" style="fill: #17344a"/>
    <path d="M1722.35,89.81v-36h6.72v36h-6.72Z" transform="translate(-1667.59 -53.81)" style="fill: #17344a"/>
    <path d="M1749.67,53.81h7.2l-7.78,36h-9l-8-36h7.2l4.22,23.09c0.38,2,.62,4.08.82,6.14a29.75,29.75,0,0,1,.29,3h0.1a29.77,29.77,0,0,1,.29-3c0.19-2.06.43-4.13,0.82-6.14Z" transform="translate(-1667.59 -53.81)" style="fill: #17344a"/>
    <path d="M1759.88,89.81v-36h18.91v5.28H1766.6v9.07h11.23v5.28H1766.6V84.53h12.19v5.28h-18.91Z" transform="translate(-1667.59 -53.81)" style="fill: #17344a"/>
    <path d="M1798.44,53.81h6.72v36h-7L1792.92,77a121.08,121.08,0,0,1-4.8-14.3H1788c0.24,3,.53,6.62.72,10.27s0.34,7.2.34,10.08v6.77h-6.72v-36h7l5.23,13.1a120.71,120.71,0,0,1,4.8,14.3h0.1c-0.24-3.26-.48-6.77-0.67-10.22s-0.34-6.91-.34-10.13V53.81Z" transform="translate(-1667.59 -53.81)" style="fill: #17344a"/>
    <path d="M1809.93,53.81h6.43c4.08,0,7.73.24,10.66,3.41,2.4,2.88,3.46,8.26,3.46,11.86,0,4.08.1,9.5-1.39,13.39-2.21,6.19-6.1,7.34-12.1,7.34h-7.06v-36ZM1813.05,87h3.74a13.41,13.41,0,0,0,5.52-.77c4.8-2.21,5-10.13,5-14.5,0-4.56.1-11.76-4.66-14.35-1.87-1-4.8-.91-7-0.82h-2.69V87Z" transform="translate(-1667.59 -53.81)" style="fill: #17344a"/>
    <path d="M1844.59,53.81l9.65,36h-3.17l-2.83-11.09h-10.94l-2.93,11.09h-3l9.65-36h3.6Zm3,22.13-4.75-18.19h-0.1L1838,75.94h9.6Z" transform="translate(-1667.59 -53.81)" style="fill: #17344a"/>
    <path d="M1851.45,56.6V53.81h19.44V56.6h-8.16V89.81h-3.12V56.6h-8.16Z" transform="translate(-1667.59 -53.81)" style="fill: #17344a"/>
    <path d="M1881.32,53.81l9.65,36h-3.17L1885,78.73H1874l-2.93,11.09h-3l9.65-36h3.6Zm3,22.13-4.75-18.19h-0.1l-4.75,18.19h9.6Z" transform="translate(-1667.59 -53.81)" style="fill: #17344a"/>
  </g>
</svg>
